<?xml version="1.0" encoding="UTF-8" standalone="no"?>
<svg
   width="40"
   height="40"
   version="1.1"
   id="svg3608"
   sodipodi:docname="radio-checked-symbolic.svg"
   inkscape:version="1.2.2 (b0a8486541, 2022-12-01)"
   xmlns:inkscape="http://www.inkscape.org/namespaces/inkscape"
   xmlns:sodipodi="http://sodipodi.sourceforge.net/DTD/sodipodi-0.dtd"
   xmlns="http://www.w3.org/2000/svg"
   xmlns:svg="http://www.w3.org/2000/svg">
  <defs
     id="defs3612" />
  <sodipodi:namedview
     id="namedview3610"
     pagecolor="#ffffff"
     bordercolor="#999999"
     borderopacity="1"
     inkscape:showpageshadow="0"
     inkscape:pageopacity="0"
     inkscape:pagecheckerboard="0"
     inkscape:deskcolor="#d1d1d1"
     showgrid="true"
     inkscape:zoom="11.917234"
     inkscape:cx="20.013033"
     inkscape:cy="20.013033"
     inkscape:window-width="1329"
     inkscape:window-height="733"
     inkscape:window-x="37"
     inkscape:window-y="0"
     inkscape:window-maximized="1"
     inkscape:current-layer="svg3608">
    <inkscape:grid
       type="xygrid"
       id="grid4190"
       originx="0"
       originy="0" />
  </sodipodi:namedview>
  <path
     d="M 20,0 C 8.96,0 0,8.96 0,20 0,31.04 8.96,40 20,40 31.04,40 40,31.04 40,20 40,8.96 31.04,0 20,0 Z m 0,4 c 9,0 16,7 16,16 0,9 -7,16 -16,16 C 11,36 4,29 4,20 4,11 11,4 20,4 Z"
     style="display:inline;stroke-width:5;stroke-dasharray:none"
     id="path3606"
     sodipodi:nodetypes="ssssssssss" />
  <path
     d="M 20,8 C 13,8 8,13 8,20 8,27 13,32 20,32 27,32 32,27 32,20 32,13 27,8 20,8 Z"
     style="display:inline;stroke-width:2"
     id="path4194"
     sodipodi:nodetypes="sssss" />
</svg>
