<?xml version="1.0" encoding="UTF-8" standalone="no"?>
<svg
   width="48"
   height="48"
   version="1.1"
   id="svg3608"
   sodipodi:docname="radio-checked-symbolic.svg"
   inkscape:version="1.2.2 (b0a8486541, 2022-12-01)"
   xmlns:inkscape="http://www.inkscape.org/namespaces/inkscape"
   xmlns:sodipodi="http://sodipodi.sourceforge.net/DTD/sodipodi-0.dtd"
   xmlns="http://www.w3.org/2000/svg"
   xmlns:svg="http://www.w3.org/2000/svg">
  <defs
     id="defs3612" />
  <sodipodi:namedview
     id="namedview3610"
     pagecolor="#ffffff"
     bordercolor="#999999"
     borderopacity="1"
     inkscape:showpageshadow="0"
     inkscape:pageopacity="0"
     inkscape:pagecheckerboard="0"
     inkscape:deskcolor="#d1d1d1"
     showgrid="true"
     inkscape:zoom="11.519446"
     inkscape:cx="23.785866"
     inkscape:cy="23.612247"
     inkscape:window-width="1329"
     inkscape:window-height="733"
     inkscape:window-x="37"
     inkscape:window-y="0"
     inkscape:window-maximized="1"
     inkscape:current-layer="svg3608">
    <inkscape:grid
       type="xygrid"
       id="grid4190" />
  </sodipodi:namedview>
  <path
     d="M 24,4 C 12.96,4 4,12.96 4,24 4,35.04 12.96,44 24,44 35.04,44 44,35.04 44,24 44,12.96 35.04,4 24,4 Z m 0,2 C 34,6 42,14 42,24 42,34 34,42 24,42 14,42 6,34 6,24 6,14 14,6 24,6 Z"
     style="stroke-width:2"
     id="path3606"
     sodipodi:nodetypes="ssssssssss" />
  <path
     d="m 24,11 c -7.176,0 -13,5.824 -13,13 0,7.176 5.824,13 13,13 7.176,0 13,-5.824 13,-13 0,-7.176 -5.824,-13 -13,-13 z"
     style="stroke-width:2"
     id="path4194"
     sodipodi:nodetypes="sssss" />
</svg>
