<?xml version="1.0" encoding="UTF-8" standalone="no"?>
<svg
   width="32"
   height="32"
   version="1.1"
   id="svg4248"
   sodipodi:docname="small-radio-checked-symbolic.svg"
   inkscape:version="1.2.2 (b0a8486541, 2022-12-01)"
   xmlns:inkscape="http://www.inkscape.org/namespaces/inkscape"
   xmlns:sodipodi="http://sodipodi.sourceforge.net/DTD/sodipodi-0.dtd"
   xmlns="http://www.w3.org/2000/svg"
   xmlns:svg="http://www.w3.org/2000/svg">
  <defs
     id="defs4252" />
  <sodipodi:namedview
     id="namedview4250"
     pagecolor="#ffffff"
     bordercolor="#999999"
     borderopacity="1"
     inkscape:showpageshadow="0"
     inkscape:pageopacity="0"
     inkscape:pagecheckerboard="0"
     inkscape:deskcolor="#d1d1d1"
     showgrid="true"
     inkscape:zoom="8.0575438"
     inkscape:cx="17.995558"
     inkscape:cy="14.334393"
     inkscape:window-width="1366"
     inkscape:window-height="698"
     inkscape:window-x="0"
     inkscape:window-y="0"
     inkscape:window-maximized="1"
     inkscape:current-layer="svg4248">
    <inkscape:grid
       type="xygrid"
       id="grid4377" />
  </sodipodi:namedview>
  <path
     d="M 16,0 C 7.163,0 0,7.163 0,16 0,24.837 7.163,32 16,32 24.837,32 32,24.837 32,16 32,7.163 24.837,0 16,0 Z m 0,2 C 24,2 30,8 30,16 30,24 24,30 16,30 8,30 2,24 2,16 2,8 8,2 16,2 Z"
     style="stroke-width:2"
     id="path4246"
     sodipodi:nodetypes="ssssscsscc" />
  <path
     d="M 16,6 C 10.48,6 6,10.48 6,16 6,21.52 10.48,26 16,26 21.52,26 26,21.52 26,16 26,10.48 21.52,6 16,6 Z"
     style="stroke-width:2"
     id="path4194"
     sodipodi:nodetypes="sssss" />
</svg>
